<svg xmlns="http://www.w3.org/2000/svg" viewBox="0 0 15.26 6.87">
  <title>iabiri-logo</title>
  <g>
    <g>
      <path d="M.93,1.54A.28.28,0,0,1,1,1.76.29.29,0,0,1,.94,2a.32.32,0,0,1-.22.08A.27.27,0,0,1,.51,2a.28.28,0,0,1-.08-.22.29.29,0,0,1,.08-.22.29.29,0,0,1,.21-.09A.26.26,0,0,1,.93,1.54ZM1,5.36H.5V2.85L1,2.7Z" style="fill: #fff"/>
      <path d="M3.32,4.48v0c0,.09,0,.18,0,.26s0,.14,0,.2a1.62,1.62,0,0,0,0,.2.48.48,0,0,0,.09.19H2.87V5.19l-.27.12-.26.09-.26,0a.59.59,0,0,1-.27,0,.62.62,0,0,1-.21-.16.7.7,0,0,1-.21-.52.74.74,0,0,1,.07-.34.66.66,0,0,1,.21-.23A1.69,1.69,0,0,1,2.56,4h.29V3.45a.58.58,0,0,0-.1-.37A.22.22,0,0,0,2.62,3l-.18-.05H2.33a.48.48,0,0,0-.17,0,1,1,0,0,0-.22,0,.77.77,0,0,0-.23.1l-.08,0V2.89l.28-.07.25,0,.24,0h.21a.83.83,0,0,1,.57.15,1.07,1.07,0,0,1,.14.66ZM2.11,4.26a.37.37,0,0,0-.2.35A.44.44,0,0,0,2.07,5a.75.75,0,0,0,.45.12h.33v-1A2,2,0,0,0,2.11,4.26Z" style="fill: #ee2924"/>
      <path d="M4.38,3a1.12,1.12,0,0,1,.26-.14l.2-.08a1,1,0,0,1,.33-.06.86.86,0,0,1,.71.34A1.36,1.36,0,0,1,6.17,4a1.69,1.69,0,0,1-.09.56A1.61,1.61,0,0,1,5.82,5,1.08,1.08,0,0,1,5,5.4H4.79l-.15,0a.7.7,0,0,1-.27-.14l-.46.23V1.5l.47-.1ZM4.5,5.11l.11,0,.09,0h.09a.81.81,0,0,0,.65-.29,1.16,1.16,0,0,0,.24-.77,1,1,0,0,0-.25-.76,1,1,0,0,0-.73-.27l-.29,0h0v2Z" style="fill: #ee2924"/>
      <path d="M7.05,1.54a.31.31,0,0,1,.08.22A.26.26,0,0,1,7.05,2a.3.3,0,0,1-.22.08A.29.29,0,0,1,6.62,2a.38.38,0,0,1-.08-.22.33.33,0,0,1,.08-.22.33.33,0,0,1,.21-.09A.29.29,0,0,1,7.05,1.54Zm0,3.82H6.62V2.85l.46-.15Z" style="fill: #ee2924"/>
      <path d="M8.23,3.09l.22-.17.19-.11A.72.72,0,0,1,9,2.73H9l.05,0,.13,0v.56a.86.86,0,0,0-.3-.16,1,1,0,0,0-.35-.06h-.3V5.36H7.77V2.86l.46-.15Z" style="fill: #ee2924"/>
      <path d="M9.91,1.54a.27.27,0,0,1,.08.22A.29.29,0,0,1,9.92,2a.34.34,0,0,1-.22.08A.29.29,0,0,1,9.48,2a.38.38,0,0,1-.08-.22.33.33,0,0,1,.08-.22.34.34,0,0,1,.22-.09A.29.29,0,0,1,9.91,1.54Zm0,3.82H9.48V2.85l.46-.15Z" style="fill: #ee2924"/>
    </g>
    <g>
      <path d="M12.73,3.24h2.19a.3.3,0,0,0,.27-.48l-.34-.49H12.79a1.8,1.8,0,0,1-.72-.07,1.18,1.18,0,0,1-.56-.47l-.72-1a2.8,2.8,0,0,1-.54-.55L10.18,0H9.91l1.86,2.73A1.2,1.2,0,0,0,12.73,3.24Z" style="fill: #ee2924"/>
      <path d="M12.79,2.1h1.39a5.71,5.71,0,0,1,.58,0L13.31,0h-.24l.1.13c.47.69.19,1.26-.61,1.26A2.77,2.77,0,0,1,11.2,1l.46.64A1.1,1.1,0,0,0,12.79,2.1Z" style="fill: #ee2924"/>
      <path d="M11.66,5a1.13,1.13,0,0,1,.56-.47,1.8,1.8,0,0,1,.72-.07h2l.26-.38a.29.29,0,0,0-.27-.47H12.72a1.18,1.18,0,0,0-1,.5L9.92,6.87h.28l.07-.14a2.57,2.57,0,0,1,.59-.6h0Z" style="fill: #ee2924"/>
      <path d="M14.32,4.61H12.94a1.1,1.1,0,0,0-1.13.48l-.54.75a2.8,2.8,0,0,1,1.29-.38c.8,0,1.08.56.62,1.25a.64.64,0,0,1-.1.13h.25l1.5-2.24A4.34,4.34,0,0,1,14.32,4.61Z" style="fill: #ee2924"/>
      <path d="M12.07,2.2a1.8,1.8,0,0,0,.72.07h2.06l-.09-.14a5.71,5.71,0,0,0-.58,0H12.79a1.1,1.1,0,0,1-1.13-.48L11.2,1A3.27,3.27,0,0,1,10.79.7l.72,1A1.18,1.18,0,0,0,12.07,2.2Z" style="fill: #fff"/>
      <path d="M14.32,4.46H12.94a1.8,1.8,0,0,0-.72.07,1.13,1.13,0,0,0-.56.47l-.8,1.14h0c.14-.1.27-.2.41-.28l.54-.75a1.1,1.1,0,0,1,1.13-.48h1.38a4.34,4.34,0,0,0,.51,0l.09-.15Z" style="fill: #fff"/>
    </g>
  </g>
</svg>
