<svg xmlns="http://www.w3.org/2000/svg" viewBox="0 0 152.78 83.42">
  <title>voltic-logo</title>
  <g>
    <g>
      <path d="M10.27,80.72.39,57.08A4.1,4.1,0,0,1,0,55.47a3.29,3.29,0,0,1,3.35-3.31,3.51,3.51,0,0,1,3.4,2.35l7.61,19.72L22.07,54.3a3.47,3.47,0,0,1,3.22-2.14,3.24,3.24,0,0,1,3.31,3.23,4,4,0,0,1-.35,1.48l-10,23.85a3.94,3.94,0,0,1-3.79,2.65h-.43A3.94,3.94,0,0,1,10.27,80.72Z" style="fill: #ed1c24"/>
      <path d="M29.76,67.75v-.09C29.76,59,36.6,51.9,46,51.9s16.15,7,16.15,15.67v.09c0,8.66-6.84,15.76-16.24,15.76S29.76,76.41,29.76,67.75Zm25.38,0v-.09a9.26,9.26,0,0,0-9.23-9.58c-5.4,0-9.14,4.27-9.14,9.49v.09A9.25,9.25,0,0,0,46,77.23C51.4,77.23,55.14,73,55.14,67.75Z" style="fill: #ed1c24"/>
      <path d="M65.49,55.52a3.35,3.35,0,1,1,6.7,0V76.8H84.6a3,3,0,0,1,0,6.09H68.84a3.32,3.32,0,0,1-3.35-3.35Z" style="fill: #ed1c24"/>
      <path d="M91.69,58.61H85.24a3.09,3.09,0,1,1,0-6.18h19.59a3.09,3.09,0,1,1,0,6.18H98.39V79.8a3.35,3.35,0,1,1-6.7,0Z" style="fill: #ed1c24"/>
      <path d="M112.22,55.52a3.35,3.35,0,1,1,6.7,0V79.8a3.35,3.35,0,0,1-6.7,0Z" style="fill: #ed1c24"/>
      <path d="M125.19,67.75v-.09A15.49,15.49,0,0,1,141.08,51.9,16.12,16.12,0,0,1,151.26,55a3.36,3.36,0,0,1,1.31,2.66,3.27,3.27,0,0,1-3.31,3.26,3.49,3.49,0,0,1-2-.65A10.07,10.07,0,0,0,141,58.08c-5.13,0-8.83,4.27-8.83,9.49v.09c0,5.22,3.61,9.57,8.83,9.57a9.81,9.81,0,0,0,6.62-2.39,3.11,3.11,0,1,1,4,4.75,16.05,16.05,0,0,1-26.46-11.84Z" style="fill: #ed1c24"/>
    </g>
    <path d="M47.37,30.61h36a2.49,2.49,0,0,0,0-5h-36a2.49,2.49,0,1,0,0,5Z" style="fill: #253672"/>
    <path d="M22.3,13.62h36a2.49,2.49,0,1,0,0-5h-36a2.49,2.49,0,0,0,0,5Z" style="fill: #e33f26"/>
    <path d="M28.28,42.45H83.39a2.49,2.49,0,1,0,0-5H28.28a2.49,2.49,0,1,0,0,5Z" style="fill: #253672"/>
    <circle cx="38.1" cy="28.12" r="2.21" style="fill: #e33f26"/>
    <path d="M95.35,16.52A2.5,2.5,0,0,1,97.84,19V38.32A5.67,5.67,0,0,0,103.51,44h13.8a2.5,2.5,0,0,1,2.49,2.49h0A2.49,2.49,0,0,1,117.31,49h-13.8A10.65,10.65,0,0,1,92.86,38.32V19A2.49,2.49,0,0,1,95.35,16.52Z" style="fill: #253672"/>
    <path d="M87.26,42.54V11.31A6.34,6.34,0,0,1,93.59,5H112a2.49,2.49,0,0,0,0-5H93.59A11.32,11.32,0,0,0,82.28,11.31V42.54Z" style="fill: #253672"/>
    <path d="M84.77,21.5H95.35a2.49,2.49,0,1,0,0-5H84.77a2.49,2.49,0,1,0,0,5Z" style="fill: #253672"/>
    <path d="M103.31,13.62h8.82a2.49,2.49,0,1,0,0-5h-8.82a2.49,2.49,0,0,0,0,5Z" style="fill: #e33f26"/>
    <path d="M103.31,16.52h14A2.5,2.5,0,0,1,119.8,19h0a2.49,2.49,0,0,1-2.49,2.49h-14a2.49,2.49,0,0,1,0-5Z" style="fill: #e33f26"/>
  </g>
</svg>
